<?xml version="1.0" encoding="utf-8"?>
<!-- Generator: Adobe Illustrator 26.0.2, SVG Export Plug-In . SVG Version: 6.00 Build 0)  -->
<svg version="1.1" id="图层_1" xmlns="http://www.w3.org/2000/svg" xmlns:xlink="http://www.w3.org/1999/xlink" x="0px" y="0px"
	 viewBox="0 0 1920 1080" style="enable-background:new 0 0 1920 1080;" xml:space="preserve">
<style type="text/css">
	.st0{fill:#231815;}
</style>
<g>
	<path class="st0" d="M239.22,512.67c-30.46,0-56.85-5.63-79.18-16.86c-22.33-11.23-39.55-27.28-51.67-48.12
		c-12.13-20.85-18.19-45.46-18.19-73.85V139.2h65.2v229.31c0,28.69,7.02,50.5,21.07,65.42c14.04,14.93,34.22,22.41,60.55,22.41
		c26.31,0,46.41-7.47,60.32-22.41c13.89-14.92,20.85-36.74,20.85-65.42V139.2h69.64v234.63c0,28.39-6.07,53.01-18.19,73.85
		c-12.13,20.85-29.35,36.89-51.68,48.12C295.62,507.04,269.37,512.67,239.22,512.67z"/>
	<path class="st0" d="M698.29,327.71v179.2h-64.32V337.91c0-37.26-17.59-55.89-52.78-55.89c-20.11,0-35.86,6.52-47.24,19.52
		c-11.39,13.02-17.08,30.9-17.08,53.67V506.9h-64.31V296.65c0-25.42,0-46.21,0-62.54h57.95c0,11.58-0.14,24.84,0.16,40.81
		c20.11-31.33,51.59-47.01,94.48-47.01c28.97,0,51.74,8.73,68.3,26.17C690,271.53,698.29,296.06,698.29,327.71z"/>
	<path class="st0" d="M796.31,129c11.53,0,20.77,3.48,27.72,10.42c6.94,6.95,10.42,16.2,10.42,27.73s-3.48,20.78-10.42,27.71
		c-6.95,6.95-16.19,10.43-27.72,10.43c-11.53,0-20.78-3.48-27.72-10.43c-6.95-6.94-10.42-16.19-10.42-27.71s3.47-20.78,10.42-27.73
		C775.53,132.48,784.77,129,796.31,129z M828.24,234.12V506.9h-64.31V234.12H828.24z"/>
	<path class="st0" d="M980.38,285.13v138.39c0,23.94,11.67,35.92,35.03,35.92c9.75,0,18.48-1.18,26.17-3.55v50.12
		c-13.01,4.73-26.6,7.09-40.81,7.09c-26.32,0-47.01-7.69-62.1-23.07c-15.08-15.37-22.62-36.51-22.62-63.42V285.13H878.8v-51.01
		h37.25v-64.31h64.33v64.31h61.2v51.01H980.38z"/>
	<path class="st0" d="M1242.96,231.02v57.22c-7.09-1.18-13.75-1.77-19.96-1.77c-19.82,0-35.78,6.21-47.9,18.62
		c-12.13,12.41-18.19,30.16-18.19,53.22v148.6h-64.33V296.65c0-25.42,0-45.89,0-62.54h56.34c0,9.21-0.01,23.39-0.01,43.47
		c8.28-16.26,18.93-28.6,31.94-37.03c13.01-8.43,27.8-12.64,44.35-12.64C1233.78,227.91,1239.69,228.95,1242.96,231.02z"/>
	<path class="st0" d="M1529.93,388.03h-185.85c2.07,24.25,9.25,42.65,21.52,55.22c12.26,12.57,28.31,18.85,48.12,18.85
		c15.37,0,27.56-3.32,36.58-9.98c9.02-6.64,16.05-16.19,21.07-28.6l56.04,0.04c-7.54,54.64-57.52,89.55-112.8,89.55
		c-27.5,0-51.46-5.98-71.86-17.96c-20.41-11.98-36.09-28.76-47.01-50.35c-10.95-21.58-16.41-46.27-16.41-74.07
		s5.53-52.49,16.62-74.08c11.09-21.58,26.24-38.43,45.46-50.56c19.23-12.12,40.81-18.19,64.76-18.19c25.42,0,47.53,5.93,66.31,17.74
		c18.78,11.84,33.19,28.47,43.24,49.91c10.05,21.44,15.09,46.49,15.09,75.18C1530.82,376.94,1530.52,382.71,1529.93,388.03z
		 M1345.41,341.91h119.76c-2.36-20.71-8.59-36.37-18.62-47.03c-10.06-10.64-23.66-15.96-40.82-15.96
		c-15.96,0-29.26,5.48-39.92,16.41C1355.17,306.27,1348.37,321.79,1345.41,341.91z"/>
	<path class="st0" d="M1824,388.03h-185.85c2.07,24.25,9.25,42.65,21.52,55.22c12.26,12.57,28.31,18.85,48.12,18.85
		c15.37,0,27.56-3.32,36.58-9.98c9.02-6.64,16.05-16.19,21.07-28.6l56.04,0.04c-7.54,54.64-57.52,89.55-112.8,89.55
		c-27.5,0-51.46-5.98-71.86-17.96c-20.41-11.98-36.09-28.76-47.01-50.35c-10.95-21.58-16.41-46.27-16.41-74.07
		s5.53-52.49,16.62-74.08c11.09-21.58,26.24-38.43,45.46-50.56c19.23-12.12,40.81-18.19,64.76-18.19c25.42,0,47.53,5.93,66.31,17.74
		c18.78,11.84,33.19,28.47,43.24,49.91c10.05,21.44,15.09,46.49,15.09,75.18C1824.88,376.94,1824.59,382.71,1824,388.03z
		 M1639.48,341.91h119.76c-2.36-20.71-8.59-36.37-18.62-47.03c-10.06-10.64-23.66-15.96-40.82-15.96
		c-15.96,0-29.26,5.48-39.92,16.41C1649.23,306.27,1642.44,321.79,1639.48,341.91z"/>
</g>
<g>
	<path d="M290.79,762.11c13.04-16.61,19.65-37.64,19.65-62.51c0-18.9-4.01-35.78-11.9-50.18c-7.91-14.41-19.21-25.74-33.58-33.67
		c-14.36-7.91-31.36-11.92-50.54-11.92H89v317.41h53.72V795.77h38.93l84.29,124.95l0.35,0.53h65.27L238.8,793.44
		C260.61,788.82,278.09,778.29,290.79,762.11z M256.33,699.6c0,17.09-4.57,30.39-13.57,39.51c-9,9.12-22.23,13.74-39.32,13.74
		h-60.73v-106.1h60.73c17.09,0,30.32,4.62,39.32,13.74C251.77,669.61,256.33,682.77,256.33,699.6z"/>
	<path d="M520.31,696.85c-16.84-10.23-36.16-15.42-57.44-15.42c-21.55,0-41,5.19-57.83,15.42c-16.83,10.24-30.17,24.82-39.63,43.33
		c-9.45,18.48-14.24,39.9-14.24,63.66c0,24.02,4.79,45.51,14.24,63.86c9.46,18.38,22.79,32.89,39.63,43.13
		c16.83,10.23,36.29,15.42,57.83,15.42c21.28,0,40.6-5.19,57.44-15.42c16.84-10.24,30.17-24.76,39.63-43.13
		c9.45-18.35,14.24-39.84,14.24-63.86c0-23.76-4.79-45.18-14.24-63.66C550.48,721.67,537.14,707.09,520.31,696.85z M494.49,875.86
		c-9.02,6.76-19.66,10.19-31.62,10.19c-11.96,0-22.67-3.43-31.82-10.19c-9.19-6.79-16.44-16.49-21.55-28.84
		c-5.14-12.4-7.75-26.92-7.75-43.17c0-16.24,2.61-30.77,7.75-43.17c5.11-12.35,12.37-22.05,21.55-28.84
		c9.15-6.76,19.86-10.19,31.82-10.19c11.96,0,22.59,3.43,31.62,10.19c9.05,6.78,16.24,16.49,21.36,28.84
		c5.14,12.41,7.75,26.94,7.75,43.17c0,16.24-2.61,30.76-7.75,43.17C510.73,859.36,503.54,869.07,494.49,875.86z"/>
	<path d="M793.5,696.88c-15.29-10.25-32.52-15.45-51.21-15.45c-15.79,0-30.08,3.16-42.47,9.39c-11.39,5.73-21.34,13.86-29.63,24.21
		V590.32H620v276.07c0,20.18-0.66,38.2-1.95,53.56l-0.11,1.29h44.62l0.17-0.98c1.44-8.05,2.34-19.38,2.68-33.71
		c8.13,12.17,18.42,21.77,30.64,28.56c13.31,7.4,28.87,11.15,46.23,11.15c18.7,0,35.93-5.2,51.21-15.45
		c15.26-10.25,27.47-24.83,36.27-43.33c8.79-18.48,13.25-39.88,13.25-63.63c0-23.74-4.46-45.15-13.25-63.63
		C820.96,721.7,808.76,707.12,793.5,696.88z M792.04,803.84c0,16.24-2.61,30.76-7.75,43.17c-5.12,12.35-12.37,22.05-21.55,28.84
		c-9.15,6.76-19.86,10.19-31.82,10.19s-22.6-3.43-31.62-10.19c-9.06-6.79-16.25-16.49-21.36-28.84c-5.14-12.4-7.75-26.92-7.75-43.17
		c0-16.24,2.61-30.77,7.75-43.17c5.12-12.35,12.3-22.06,21.36-28.84c9.02-6.76,19.65-10.19,31.62-10.19s22.67,3.43,31.82,10.19
		c9.18,6.78,16.43,16.49,21.55,28.84C789.43,773.08,792.04,787.61,792.04,803.84z"/>
	<path d="M1047.78,696.85c-16.84-10.23-36.16-15.42-57.44-15.42c-21.55,0-41,5.19-57.83,15.42c-16.83,10.24-30.17,24.81-39.63,43.33
		c-9.45,18.48-14.24,39.9-14.24,63.66c0,24.02,4.79,45.51,14.24,63.86c9.46,18.38,22.79,32.89,39.63,43.13
		c16.83,10.23,36.29,15.42,57.83,15.42c21.28,0,40.6-5.19,57.44-15.42c16.84-10.24,30.17-24.76,39.63-43.13
		c9.45-18.35,14.24-39.84,14.24-63.86c0-23.76-4.79-45.18-14.24-63.66C1077.95,721.67,1064.62,707.09,1047.78,696.85z
		 M1021.96,875.86c-9.02,6.76-19.66,10.19-31.62,10.19c-11.96,0-22.67-3.43-31.82-10.19c-9.19-6.79-16.44-16.49-21.55-28.84
		c-5.14-12.39-7.75-26.92-7.75-43.17c0-16.25,2.61-30.77,7.75-43.17c5.11-12.35,12.37-22.05,21.55-28.84
		c9.15-6.76,19.86-10.19,31.82-10.19c11.96,0,22.59,3.43,31.62,10.19c9.05,6.78,16.24,16.49,21.36,28.84
		c5.14,12.41,7.75,26.93,7.75,43.17c0,16.24-2.61,30.77-7.75,43.17C1038.2,859.36,1031.01,869.07,1021.96,875.86z"/>
	<path d="M1216.47,630.08h-50.58v56.37h-34.09v40.21h34.09v129.69c0,21.59,6.38,38.82,18.97,51.23
		c12.58,12.4,29.94,18.68,51.58,18.68c12.09,0,23.56-1.84,34.09-5.47l0.8-0.28v-39.94l-1.56,0.51c-6.11,2.01-13.9,3.03-23.14,3.03
		c-20.3,0-30.16-9.84-30.16-30.08V726.66h54.86v-40.21h-54.86V630.08z"/>
	<rect x="1316.37" y="686.45" width="50.58" height="234.79"/>
	<path d="M1341.86,598.42c-9.16,0-16.69,2.77-22.38,8.25c-5.7,5.49-8.6,12.99-8.6,22.28c0,9.05,2.82,16.41,8.39,21.89
		c5.56,5.48,13.16,8.26,22.59,8.26c9.43,0,16.96-2.78,22.4-8.27c5.43-5.48,8.18-12.84,8.18-21.88c0-9.29-2.82-16.78-8.39-22.28
		C1358.48,601.2,1351.02,598.42,1341.86,598.42z"/>
	<path d="M1571.92,852.17c-5.91,21.5-20.53,31.94-44.7,31.94c-18.34,0-33.25-7.31-44.32-21.73c-11.15-14.51-16.8-34.21-16.8-58.54
		c0-24.58,5.65-44.34,16.8-58.73c11.07-14.3,25.98-21.54,44.32-21.54c24.17,0,38.79,10.57,44.7,32.32l0.37,1.36l42.95-19.94
		l-0.27-0.97c-4.5-16.16-14.49-29.51-29.68-39.66c-15.15-10.12-34.96-15.26-58.85-15.26c-21.29,0-40.55,5.19-57.25,15.42
		c-16.7,10.24-29.97,24.81-39.43,43.33c-9.45,18.48-14.24,39.9-14.24,63.66c0,24.02,4.79,45.51,14.24,63.86
		c9.46,18.38,22.72,32.89,39.43,43.13c16.7,10.23,35.96,15.42,57.25,15.42c23.9,0,43.7-5.13,58.85-15.26
		c15.2-10.16,25.18-23.5,29.68-39.66l0.27-0.98l-42.95-19.53L1571.92,852.17z"/>
	<path d="M1810.55,802.76c-13.19-11.82-33.84-19.77-61.36-23.65c-18.56-2.79-31.59-6.56-38.72-11.21
		c-7.02-4.57-10.43-11-10.43-19.66c0-8.94,3.3-15.7,10.09-20.66c6.81-4.97,16.46-7.49,28.69-7.49c25.52,0,40.92,9.58,47.07,29.28
		l0.4,1.28l39-17.58l-0.29-0.99c-4.51-15.68-14.65-28.19-30.13-37.18c-15.4-8.95-34.91-13.48-58.01-13.48
		c-16.54,0-31.59,2.89-44.76,8.59c-13.2,5.72-23.59,13.85-30.87,24.15c-7.29,10.32-10.99,22.31-10.99,35.63
		c0,38.08,26.32,61.34,78.23,69.12c20.09,2.8,34.08,6.95,41.6,12.34c7.34,5.28,11.07,13.46,11.07,24.32
		c0,10.24-3.81,17.94-11.65,23.55c-7.86,5.62-18.83,8.47-32.62,8.47c-29.08,0-47.95-12.07-56.09-35.87l-0.42-1.24l-38.59,17.58
		l0.3,1c5.55,18.22,16.8,32.48,33.45,42.37c16.57,9.85,38.01,14.84,63.7,14.84c17.58,0,33.43-3.09,47.12-9.17
		c13.72-6.11,24.63-14.82,32.43-25.88c7.82-11.1,11.78-24.12,11.78-38.71C1830.54,831.39,1823.81,814.66,1810.55,802.76z"/>
</g>
</svg>
